<svg xmlns="http://www.w3.org/2000/svg" width="160" height="160" viewBox="0 0 160 160"><g fill="none" stroke="#dfad5c" stroke-width="3"><circle cx="80" cy="80" r="60"/><circle cx="80" cy="80" r="50"/><path d="M80 8v17m0 110v17M8 80h17m110 0h17M29 29l12 12m78 78l12 12M29 131l12-12m78-78l12-12"/><path d="M45 115l58-75 11 7-54 76-15-8zm11-10l17 13m-24-4-14 21m6-19 16 12"/><path d="M90 106l17 6-6-22M59 70l-15-6 4 20"/></g><circle cx="80" cy="8" r="4" fill="#73c1d2"/><circle cx="8" cy="80" r="4" fill="#73c1d2"/><circle cx="152" cy="80" r="4" fill="#73c1d2"/><circle cx="80" cy="152" r="4" fill="#73c1d2"/></svg>